<svg width="75.000000" height="67.000000" viewBox="0 0 75 67" fill="none" xmlns="http://www.w3.org/2000/svg" xmlns:xlink="http://www.w3.org/1999/xlink">
	<desc>
			Created with Pixso.
	</desc>
	<defs/>
	<path id="Ellipse 2 (Граница)" d="M10.98 17.5C10.98 7.83 18.88 0 28.62 0C38.36 0 46.26 7.83 46.26 17.5C46.26 27.16 38.36 35 28.62 35C18.88 35 10.98 27.16 10.98 17.5ZM14.98 17.5C14.98 10.04 21.09 4 28.62 4C36.15 4 42.26 10.04 42.26 17.5C42.26 24.95 36.15 31 28.62 31C21.09 31 14.98 24.95 14.98 17.5Z" fill="#5E80FF" fill-opacity="1.000000" fill-rule="evenodd"/>
	<path id="Ellipse 2.1 (Граница)" d="M1.94 53.63C0.64 56.82 0 60.28 0 64C0 65.12 0.87 66 2 66C3.12 66 4 65.12 4 64C4 60.84 4.54 57.9 5.64 55.19C6.83 52.21 8.68 49.51 11.19 47.06C13.48 44.82 16 43.12 18.75 41.95C21.77 40.66 25.06 40.02 28.62 40.02C32.18 40.02 35.47 40.66 38.49 41.95C41.24 43.12 43.76 44.82 46.05 47.06C48.56 49.51 50.41 52.21 51.6 55.19C52.7 57.9 53.25 60.84 53.25 64C53.25 65.12 54.13 66 55.25 66C56.37 66 57.25 65.12 57.25 64C57.25 56.26 54.44 49.66 48.84 44.2C46.16 41.58 43.21 39.59 40 38.23C36.52 36.76 32.73 36.02 28.62 36.02C20.73 36.02 13.98 38.75 8.4 44.2C5.49 47.04 3.33 50.18 1.94 53.63Z" fill="#5E80FF" fill-opacity="1.000000" fill-rule="evenodd"/>
	<path id="Ellipse 2 (Граница)" d="M54.05 20.22C54.05 15.8 57.61 12.22 62.01 12.22C66.4 12.22 69.96 15.8 69.96 20.22C69.96 24.63 66.4 28.21 62.01 28.21C57.61 28.21 54.05 24.63 54.05 20.22ZM57.05 20.22C57.05 17.46 59.27 15.22 62.01 15.22C64.74 15.22 66.96 17.46 66.96 20.22C66.96 22.98 64.74 25.21 62.01 25.21C59.27 25.21 57.05 22.98 57.05 20.22Z" fill="#5E80FF" fill-opacity="1.000000" fill-rule="evenodd"/>
	<path id="Ellipse 2.1 (Граница)" d="M49.8 37.05C49.61 37.91 49.52 38.79 49.52 39.7C49.52 40.54 50.18 41.2 51.02 41.2C51.86 41.2 52.52 40.54 52.52 39.7C52.52 39 52.59 38.32 52.74 37.65C52.87 37.11 53.04 36.57 53.26 36.05C53.47 35.56 53.72 35.09 54 34.65C54.37 34.08 54.8 33.56 55.29 33.07C55.74 32.63 56.22 32.24 56.73 31.9C57.23 31.57 57.75 31.29 58.31 31.06C58.81 30.85 59.32 30.68 59.84 30.56C60.55 30.4 61.27 30.32 62.01 30.32C62.75 30.32 63.47 30.4 64.17 30.56C64.69 30.68 65.2 30.85 65.7 31.06C66.26 31.29 66.79 31.57 67.28 31.9C67.8 32.24 68.28 32.63 68.72 33.07C69.21 33.56 69.64 34.08 70.01 34.65C70.29 35.09 70.54 35.56 70.75 36.05C71.25 37.21 71.5 38.43 71.5 39.7C71.5 40.54 72.15 41.2 73 41.2C73.83 41.2 74.5 40.54 74.5 39.7C74.5 38.79 74.4 37.91 74.21 37.05C74.05 36.31 73.81 35.58 73.51 34.87C72.88 33.39 71.99 32.08 70.83 30.94C70.25 30.36 69.62 29.85 68.95 29.4C68.3 28.97 67.6 28.6 66.86 28.29C66.18 28 65.48 27.78 64.76 27.62C63.87 27.42 62.95 27.32 62.01 27.32C61.07 27.32 60.15 27.42 59.25 27.62C58.54 27.78 57.84 28 57.15 28.29C56.41 28.6 55.72 28.97 55.06 29.4C54.39 29.85 53.77 30.36 53.18 30.94C52.55 31.56 52 32.24 51.52 32.97C51.13 33.57 50.79 34.2 50.5 34.87C50.2 35.58 49.97 36.31 49.8 37.05Z" fill="#5E80FF" fill-opacity="1.000000" fill-rule="evenodd"/>
</svg>
