<svg width="67.000000" height="68.000000" viewBox="0 0 67 68" fill="none" xmlns="http://www.w3.org/2000/svg" xmlns:xlink="http://www.w3.org/1999/xlink">
	<desc>
			Created with Pixso.
	</desc>
	<defs/>
	<path id="Ellipse (Граница)" d="M2.43 20.82C0.81 24.75 0 29.02 0 33.62C0 34.74 0.87 35.62 2 35.62C3.12 35.62 4 34.74 4 33.62C4 29.57 4.71 25.82 6.13 22.36C7.59 18.83 9.78 15.6 12.72 12.68C15.6 9.81 18.78 7.66 22.25 6.21C25.79 4.73 29.64 4 33.8 4C35.67 4 37.5 4.16 39.3 4.5C40.39 4.7 41.46 4.96 42.53 5.28C43.6 5.61 44.7 5.02 45.02 3.95C45.35 2.88 44.76 1.78 43.69 1.46C42.44 1.08 41.17 0.77 39.89 0.54C37.89 0.18 35.87 0 33.8 0C29.09 0 24.73 0.83 20.72 2.5C16.78 4.14 13.17 6.59 9.9 9.84C6.57 13.15 4.08 16.81 2.43 20.82Z" fill="#FFFFFF" fill-opacity="1.000000" fill-rule="evenodd"/>
	<path id="Subtract" d="M40.65 40.43C36.87 44.18 30.74 44.18 26.96 40.43C23.18 36.67 23.18 30.57 26.96 26.81C30.74 23.06 57.31 7.5 58.7 8.87C60.08 10.25 44.43 36.67 40.65 40.43ZM33.8 30.87C32.28 30.87 31.04 32.1 31.04 33.62C31.04 35.14 32.28 36.37 33.8 36.37C35.33 36.37 36.57 35.14 36.57 33.62C36.57 32.1 35.33 30.87 33.8 30.87Z" fill="#FFFFFF" fill-opacity="1.000000" fill-rule="evenodd"/>
	<path id="Ellipse 2" d="M3.38 50.12C3.38 48.6 4.62 47.37 6.14 47.37C7.67 47.37 8.91 48.6 8.91 50.12C8.91 51.64 7.67 52.87 6.14 52.87C4.62 52.87 3.38 51.64 3.38 50.12Z" fill="#FFFFFF" fill-opacity="1.000000" fill-rule="evenodd"/>
	<path id="Ellipse 2.1" d="M14.44 61.12C14.44 59.6 15.68 58.37 17.21 58.37C18.74 58.37 19.97 59.6 19.97 61.12C19.97 62.64 18.74 63.87 17.21 63.87C15.68 63.87 14.44 62.64 14.44 61.12Z" fill="#FFFFFF" fill-opacity="1.000000" fill-rule="evenodd"/>
	<path id="Ellipse 2.2" d="M31.04 65.25C31.04 63.73 32.28 62.5 33.8 62.5C35.33 62.5 36.57 63.73 36.57 65.25C36.57 66.76 35.33 68 33.8 68C32.28 68 31.04 66.76 31.04 65.25Z" fill="#FFFFFF" fill-opacity="1.000000" fill-rule="evenodd"/>
	<path id="Ellipse 2.3" d="M47.63 61.12C47.63 59.6 48.87 58.37 50.4 58.37C51.93 58.37 53.17 59.6 53.17 61.12C53.17 62.64 51.93 63.87 50.4 63.87C48.87 63.87 47.63 62.64 47.63 61.12Z" fill="#FFFFFF" fill-opacity="1.000000" fill-rule="evenodd"/>
	<path id="Ellipse 2.4" d="M57.31 50.12C57.31 48.6 58.55 47.37 60.08 47.37C61.61 47.37 62.85 48.6 62.85 50.12C62.85 51.64 61.61 52.87 60.08 52.87C58.55 52.87 57.31 51.64 57.31 50.12Z" fill="#FFFFFF" fill-opacity="1.000000" fill-rule="evenodd"/>
	<path id="Ellipse 2.5" d="M61.46 33.62C61.46 32.1 62.7 30.87 64.23 30.87C65.76 30.87 66.99 32.1 66.99 33.62C66.99 35.14 65.76 36.37 64.23 36.37C62.7 36.37 61.46 35.14 61.46 33.62Z" fill="#FFFFFF" fill-opacity="1.000000" fill-rule="evenodd"/>
</svg>
